<svg xmlns="http://www.w3.org/2000/svg" xmlns:xlink="http://www.w3.org/1999/xlink" viewBox="0 0 181.871 42.79">
  <defs>
    <clipPath id="clip-path" transform="translate(0 0)">
      <rect width="181.871" height="42.79" style="fill: none"/>
    </clipPath>
  </defs>
  <g id="Layer_2" data-name="Layer 2">
    <g id="Layer_1-2" data-name="Layer 1">
      <g>
        <polygon points="11.863 0 11.863 0.014 11.839 0 0 20.505 0.025 20.519 0 20.534 11.839 41.038 11.863 41.024 11.863 41.038 35.54 41.038 35.54 41.034 35.548 41.038 47.387 20.534 47.375 20.534 47.387 20.512 42.482 12.876 30.879 32.972 16.495 32.972 9.306 20.519 16.495 8.066 26.339 8.066 19.151 20.516 19.157 20.516 19.151 20.526 21.586 24.559 26.137 24.559 28.43 20.537 28.453 20.537 37.976 4.044 35.54 0.011 31.002 0.011 30.995 0 11.863 0" style="fill: #f58432"/>
        <polygon points="117.598 35.043 114.205 35.043 114.205 36.838 116.176 36.838 116.176 37.848 114.205 37.848 114.205 40.898 113.175 40.898 113.175 34.033 117.598 34.033 117.598 35.043" style="fill: #789fbb"/>
        <g style="clip-path: url(#clip-path)">
          <path d="M122.359,40.9h-1.01v-.491a1.574,1.574,0,0,1-1.3.6c-1.2,0-1.834-.785-1.834-2.3V35.749h1.01v2.913c0,1.039.393,1.412,1.06,1.412s1.059-.48,1.059-1.314V35.749h1.01Z" transform="translate(0 0)" style="fill: #789fbb"/>
          <polygon points="125.147 40.897 124.137 40.897 124.137 34.277 125.147 33.749 125.147 40.897" style="fill: #789fbb"/>
          <polygon points="127.949 40.897 126.939 40.897 126.939 34.277 127.949 33.749 127.949 40.897" style="fill: #789fbb"/>
          <path d="M134.076,35.749l-2.589,6.963h-1.069l.745-1.913-1.893-5.05h1.109l.843,2.52c.147.451.393,1.216.451,1.5.088-.3.3-1.04.461-1.481l.873-2.54Z" transform="translate(0 0)" style="fill: #789fbb"/>
          <polygon points="143.099 40.897 138.53 40.897 138.53 34.033 142.952 34.033 142.952 35.033 139.559 35.033 139.559 36.729 141.531 36.729 141.531 37.729 139.559 37.729 139.559 39.897 143.099 39.897 143.099 40.897" style="fill: #789fbb"/>
          <path d="M148.652,42.27l-1,.52V40.407a1.961,1.961,0,0,1-1.343.6c-1.108,0-1.981-.8-1.981-2.765,0-1.765.961-2.6,2.03-2.6a1.825,1.825,0,0,1,1.294.589v-.481h1Zm-.991-2.853V37.249a1.647,1.647,0,0,0-1.207-.676c-.724,0-1.117.549-1.117,1.638,0,1.294.412,1.863,1.157,1.863a1.583,1.583,0,0,0,1.167-.657" transform="translate(0 0)" style="fill: #789fbb"/>
          <path d="M154.512,40.9H153.5v-.491a1.573,1.573,0,0,1-1.294.6c-1.2,0-1.834-.785-1.834-2.3V35.749h1.011v2.913c0,1.039.391,1.412,1.058,1.412s1.059-.48,1.059-1.314V35.749h1.011Z" transform="translate(0 0)" style="fill: #789fbb"/>
          <path d="M157.451,34.435a.652.652,0,1,1-.648-.657.653.653,0,0,1,.648.657M157.3,40.9h-1.009V35.749H157.3Z" transform="translate(0 0)" style="fill: #789fbb"/>
          <path d="M163.4,38.407c0,1.764-.961,2.6-2.031,2.6a1.828,1.828,0,0,1-1.294-.588V42.27l-1,.52V35.749h1v.491a1.962,1.962,0,0,1,1.344-.6c1.108,0,1.981.8,1.981,2.766m-1.01.029c0-1.3-.411-1.863-1.157-1.863a1.578,1.578,0,0,0-1.167.657V39.4a1.648,1.648,0,0,0,1.206.677c.725,0,1.118-.549,1.118-1.638" transform="translate(0 0)" style="fill: #789fbb"/>
          <path d="M169.269,38.407c0,1.764-.961,2.6-2.031,2.6a1.826,1.826,0,0,1-1.294-.588V42.27l-1,.52V35.749h1v.491a1.96,1.96,0,0,1,1.344-.6c1.108,0,1.981.8,1.981,2.766m-1.01.029c0-1.3-.412-1.863-1.158-1.863a1.582,1.582,0,0,0-1.167.657V39.4a1.652,1.652,0,0,0,1.207.677c.725,0,1.118-.549,1.118-1.638" transform="translate(0 0)" style="fill: #789fbb"/>
          <path d="M175,38.22c0,.187-.019.354-.029.462h-3.4c.108.99.667,1.412,1.294,1.412a1.8,1.8,0,0,0,1.118-.412l.6.647a2.391,2.391,0,0,1-1.774.677c-1.207,0-2.227-.971-2.227-2.678,0-1.745.922-2.687,2.256-2.687,1.461,0,2.167,1.187,2.167,2.579m-1.02-.372c-.049-.706-.382-1.294-1.216-1.294-.676,0-1.088.47-1.176,1.294Z" transform="translate(0 0)" style="fill: #789fbb"/>
          <path d="M180.605,40.9h-1v-.491a1.961,1.961,0,0,1-1.343.6c-1.108,0-1.981-.8-1.981-2.765,0-1.765.961-2.6,2.03-2.6a1.825,1.825,0,0,1,1.294.589V34.268l1-.519Zm-.99-1.481V37.249a1.647,1.647,0,0,0-1.207-.676c-.724,0-1.117.549-1.117,1.638,0,1.294.412,1.863,1.157,1.863a1.585,1.585,0,0,0,1.167-.657" transform="translate(0 0)" style="fill: #789fbb"/>
          <path d="M101.553,18.606v9.755H98.94V18.606a2.93,2.93,0,0,0-2.918-2.891H91.047V28.361H88.434V15.715H80.569V28.361H77.956V13.1H96.022a5.521,5.521,0,0,1,5.531,5.5" transform="translate(0 0)" style="fill: #789fbb"/>
          <path d="M123.393,23.886a4.448,4.448,0,0,1-4.447,4.475H103.993l1.635-2.64h13.318a1.835,1.835,0,1,0,0-3.669h-10.5a4.475,4.475,0,0,1,0-8.95H124.51l-1.6,2.613H108.441a1.848,1.848,0,0,0,0,3.7h10.5a4.448,4.448,0,0,1,4.447,4.475" transform="translate(0 0)" style="fill: #789fbb"/>
          <path d="M152.506,13.1h9.762l-1.563,2.613h-8.2a2.887,2.887,0,0,0-2.89,2.889v9.757H147V18.605a5.5,5.5,0,0,1,5.5-5.5" transform="translate(0 0)" style="fill: #789fbb"/>
          <path d="M73.917,25.721H61.337a2.888,2.888,0,0,1-2.891-2.891v-.778H75.233V18.606A5.521,5.521,0,0,0,69.7,13.1H61.337a5.522,5.522,0,0,0-5.532,5.5V22.83a5.546,5.546,0,0,0,5.532,5.531H75.453ZM58.446,18.606a2.888,2.888,0,0,1,2.891-2.891H69.7a2.888,2.888,0,0,1,2.891,2.891v.806H58.446Z" transform="translate(0 0)" style="fill: #789fbb"/>
          <path d="M143.613,25.721H130.544a2.888,2.888,0,0,1-2.89-2.891v-.778h16.787V18.606a5.521,5.521,0,0,0-5.531-5.5h-8.366a5.521,5.521,0,0,0-5.531,5.5V22.83a5.545,5.545,0,0,0,5.531,5.531h11.51Zm-15.959-7.115a2.888,2.888,0,0,1,2.89-2.891h8.366a2.889,2.889,0,0,1,2.891,2.891v.806H127.654Z" transform="translate(0 0)" style="fill: #789fbb"/>
          <path d="M181.043,25.721H167.975a2.888,2.888,0,0,1-2.891-2.891v-.778h16.787V18.606a5.521,5.521,0,0,0-5.531-5.5h-8.365a5.522,5.522,0,0,0-5.532,5.5V22.83a5.546,5.546,0,0,0,5.532,5.531h11.509Zm-15.959-7.115a2.888,2.888,0,0,1,2.891-2.891h8.365a2.888,2.888,0,0,1,2.891,2.891v.806H165.084Z" transform="translate(0 0)" style="fill: #789fbb"/>
        </g>
      </g>
    </g>
  </g>
</svg>
