<?xml version="1.0" encoding="UTF-8" standalone="no"?>
<svg width="1200" height="630" viewBox="0 0 1200 630" fill="none" xmlns="http://www.w3.org/2000/svg">
  <!-- Slate dark background -->
  <rect width="1200" height="630" fill="#1a3d56"/>

  <!-- Centered horizontal logo -->
  <g transform="translate(300, 240) scale(1)">
    <!-- LEOMAYN as paths (text converted to outlines) -->
    <path
      d="M 121.30852,90 H 83.550705 V 37.652344 h 13.5 V 79.875 h 24.257815 z m 54.62437,0 H 138.06961 V 37.652344 h 37.86328 v 10.125 H 151.4993 V 56.8125 h 22.67578 v 10.125 H 151.4993 V 79.875 h 24.43359 z m 70.86656,-26.15625 q 0,12.515625 -7.17187,19.898437 -7.17188,7.347657 -19.82813,7.347657 -12.62109,0 -19.79297,-7.347657 -7.17187,-7.382812 -7.17187,-19.898437 0,-12.621094 7.17187,-19.933594 7.17188,-7.347656 19.79297,-7.347656 12.58594,0 19.79297,7.347656 7.20703,7.3125 7.20703,19.933594 z m -17.89453,13.253906 q 1.96875,-2.390625 2.91797,-5.625 0.94922,-3.269531 0.94922,-7.664062 0,-4.710938 -1.08984,-8.015625 -1.08985,-3.304688 -2.84766,-5.34375 -1.79297,-2.109375 -4.14844,-3.058594 -2.32031,-0.949219 -4.85156,-0.949219 -2.56641,0 -4.85156,0.914063 -2.25,0.914062 -4.14844,3.023437 -1.75781,1.96875 -2.88281,5.449219 -1.08985,3.445312 -1.08985,8.015625 0,4.675781 1.05469,7.980469 1.08984,3.269531 2.84766,5.34375 1.75781,2.074218 4.11328,3.058593 2.35547,0.984375 4.95703,0.984375 2.60156,0 4.95703,-0.984375 2.35547,-1.019531 4.11328,-3.128906 z M 320.61914,90 H 307.18945 V 54.949219 l -9.70312,22.746093 h -9.31641 L 278.4668,54.949219 V 90 H 265.74023 V 37.652344 h 15.67969 l 11.77735,26.261718 11.74218,-26.261718 h 15.67969 z m 70.37438,0 H 377.03648 L 373.41539,79.417969 H 354.00914 L 350.38805,90 h -13.60547 l 19.33594,-52.347656 h 15.53906 z m -20.84766,-20.179688 -6.43359,-18.773437 -6.4336,18.773437 z M 453.21165,37.652344 433.91087,69.75 V 90 h -13.5 V 70.382812 L 400.79369,37.652344 h 15.32812 l 11.32031,20.25 10.9336,-20.25 z M 516.4493,90 H 503.44148 L 481.22273,54.070312 V 90 h -12.375 V 37.652344 h 16.13672 L 504.0743,67.640625 V 37.652344 h 12.375 z"
      fill="#fffcfa" />

    <!-- Coral underline - matches path bounds exactly -->
    <rect x="83.5507" y="105" width="432.899" height="8" fill="#f7c9c0"/>
  </g>
</svg>
