<?xml version="1.0" encoding="UTF-8"?>
<svg xmlns="http://www.w3.org/2000/svg" id="Layer_1" data-name="Layer 1" viewBox="0 0 24 24">
  <path d="M15.864,11.249l-4.298,5.751h-1.066l1.056-4h-2.735c-.55,0-.944-.531-.785-1.058l2.139-5.942h3.825l-1.523,4h2.717c.642,0,1.025,.715,.67,1.249Zm7.394,2.424c.482,.748,.742,1.616,.742,2.517,0,1.773-1.033,3.4-2.612,4.179-1.079,2.345-2.979,3.63-5.389,3.63-1.555,0-3.055-.892-4-2.164-.945,1.272-2.445,2.164-4,2.164-2.409,0-4.31-1.285-5.389-3.63C1.032,19.591,0,17.964,0,16.191,0,15.29,.259,14.422,.741,13.674,.221,12.868-.052,11.954-.052,11c0-1.085,.379-2.574,2.096-3.747v-.492c0-1.821,1.314-3.209,3.232-3.542C5.647,1.355,7.128,0,8.948,0,10.085,0,11.216,.453,11.997,1.306c.046-.051,.081-.109,.13-.158C12.873,.408,13.912-.002,15.061,0c1.813,.016,3.289,1.37,3.662,3.22,1.919,.333,3.233,1.721,3.233,3.542v.492c1.717,1.172,2.096,2.662,2.096,3.747,0,.954-.272,1.868-.793,2.674Zm-2.714-.064l.873-.794c.415-.537,.634-1.163,.634-1.815,0-.613-.164-1.521-1.586-2.319l-.51-.287v-1.632c0-1.112-1.11-1.619-2.143-1.619h-1v-1c0-1.032-.62-2.134-1.771-2.144-.557,.018-1.138,.203-1.508,.57-.355,.352-.535,.833-.535,1.431h-2c0-1.477-1.105-2-2.052-2-1.145,0-1.762,1.104-1.762,2.143v1h-1c-1.032,0-2.143,.507-2.143,1.619v1.632l-.51,.287c-1.422,.799-1.586,1.707-1.586,2.319,0,.652,.219,1.279,.634,1.815l.873,.794-.709,.741c-.481,.502-.747,1.156-.747,1.841,0,1.112,.679,2.088,1.728,2.485l.41,.155,.164,.406c.749,1.859,1.959,2.763,3.699,2.763,1.486,0,3-1.514,3-3h2c0,1.486,1.514,3,3,3,1.74,0,2.95-.904,3.699-2.763l.164-.406,.41-.155c1.049-.397,1.728-1.373,1.728-2.485,0-.685-.266-1.338-.747-1.841l-.709-.741Z"/>
</svg>
